<svg width="256" height="256" viewBox="0 0 256 256" fill="none" xmlns="http://www.w3.org/2000/svg">
<g clip-path="url(#clip0_119_2)">
<path d="M196 0H60C26.8629 0 0 26.8629 0 60V196C0 229.137 26.8629 256 60 256H196C229.137 256 256 229.137 256 196V60C256 26.8629 229.137 0 196 0Z" fill="#242938"/>
<path d="M47.862 176.192L55.204 180.431L136.997 38.766L129.655 34.527L47.862 176.192Z" fill="#E535AB"/>
<path d="M209.766 164.875H46.181V173.353H209.766V164.875Z" fill="#E535AB"/>
<path d="M49.418 169.637L131.241 216.879L135.48 209.537L53.657 162.295L49.418 169.637ZM120.498 46.512L202.321 93.754L206.56 86.412L124.737 39.17L120.498 46.512Z" fill="#E535AB"/>
<path d="M49.44 86.3799L53.68 93.7219L135.503 46.4799L131.264 39.1379L49.44 86.3799Z" fill="#E535AB"/>
<path d="M119.02 38.7681L200.812 180.432L208.154 176.193L126.362 34.5291L119.02 38.7681ZM61.145 80.7581H52.667V175.242H61.145V80.7581Z" fill="#E535AB"/>
<path d="M203.331 80.7581H194.853V175.242H203.331V80.7581Z" fill="#E535AB"/>
<path d="M126.095 206.877L129.798 213.291L200.962 172.203L197.259 165.79L126.095 206.877Z" fill="#E535AB"/>
<path d="M214.567 178C209.664 186.529 198.734 189.44 190.205 184.537C181.676 179.634 178.765 168.705 183.668 160.176C188.571 151.646 199.501 148.735 208.03 153.638C216.61 158.592 219.521 169.471 214.567 178ZM72.279 95.824C67.376 104.353 56.446 107.265 47.917 102.362C39.388 97.459 36.477 86.529 41.38 78C46.283 69.47 57.212 66.56 65.742 71.463C74.271 76.417 77.182 87.295 72.279 95.824ZM41.431 178C36.528 169.471 39.439 158.592 47.968 153.638C56.498 148.735 67.376 151.646 72.33 160.176C77.233 168.705 74.322 179.583 65.793 184.537C57.213 189.44 46.334 186.529 41.431 178ZM183.719 95.824C178.816 87.295 181.727 76.417 190.256 71.463C198.786 66.56 209.664 69.471 214.618 78C219.521 86.53 216.61 97.408 208.081 102.362C199.552 107.265 188.622 104.353 183.719 95.824ZM127.999 228C118.142 228 110.175 220.033 110.175 210.176C110.175 200.319 118.142 192.351 127.999 192.351C137.856 192.351 145.823 200.319 145.823 210.176C145.823 219.982 137.856 228 127.999 228ZM127.999 63.649C118.142 63.649 110.175 55.681 110.175 45.824C110.175 35.967 118.142 28 127.999 28C137.856 28 145.823 35.967 145.823 45.824C145.823 55.681 137.856 63.649 127.999 63.649Z" fill="#E535AB"/>
</g>
<defs>
<clipPath id="clip0_119_2">
<rect width="256" height="256" fill="white"/>
</clipPath>
</defs>
</svg>
